<svg xmlns="http://www.w3.org/2000/svg" width="256" height="256" fill="none" viewBox="0 0 256 256">
<!-- SVG created with Arrow, by QuiverAI (https://quiver.ai) -->
  <path d="m156.5 51.92 62.65-46.35 35.75 64.75-28.89-6.17-0.2-0.05-39.28 141.1c-9.35 31.06-36.42 44.58-61.83 44.26-6.59 0-12.32-0.91-15.43-2.16 16.49-4.88 28.34-18.08 34.23-38.4l41.93-152.3-29.16-4.68 0.23-0.01z" fill="url(#paint0_linear_111_3160)"/>
  <path d="m117.4 50.91 2.96-0.2-41.93 152.8c-8.68 29.63-33.96 45.65-60.82 45.65-7.43 0-11.75-0.88-15.86-1.86 15.99-5.03 27.2-18 33.47-38.85l31.93-114.8c8.02-22.49 28.36-41.85 50.25-42.71z" fill="url(#paint1_linear_111_3160)"/>
  <path d="m117.4 122.3h33.53l-8.57 35.17h-34.79l9.83-35.17z" fill="url(#paint2_linear_111_3160)"/>
  <defs>
    <linearGradient id="paint0_linear_111_3160" x1="166.7" x2="229.9" y1="243.2" y2="11.92" gradientUnits="userSpaceOnUse">
      <stop stop-color="#72BF4A" offset="0"/>
      <stop stop-color="#A6D653" offset="1"/>
    </linearGradient>
    <linearGradient id="paint1_linear_111_3160" x1="1.71" x2="107.4" y1="247.3" y2="50.71" gradientUnits="userSpaceOnUse">
      <stop stop-color="#223371" offset="0"/>
      <stop stop-color="#1B5BA2" offset="1"/>
    </linearGradient>
    <linearGradient id="paint2_linear_111_3160" x1="129.2" x2="129.2" y1="122.3" y2="157.5" gradientUnits="userSpaceOnUse">
      <stop stop-color="#A6D653" offset="0"/>
      <stop stop-color="#97CE50" offset="1"/>
    </linearGradient>
  </defs>
</svg>